<?xml version="1.0" encoding="UTF-8" standalone="no"?>
<svg xmlns="http://www.w3.org/2000/svg" version="1.1" viewBox="0 0 750 750" width="750" height="750">
  <defs>
    <style>
      .cls-1, .cls-2 {
        fill: #fff;
      }

      .cls-3, .cls-4 {
        fill: #003456;
      }

      .cls-2 {
        font-family: Calibri, Calibri;
        font-size: 450px;
      }

      .cls-2, .cls-4 {
        isolation: isolate;
      }

      .cls-5 {
        fill: #986500;
      }

      .cls-4 {
        font-family: Calibri-Bold, Calibri;
        font-size: 150px;
        font-weight: 700;
      }
    </style>
      <radialGradient id="sphereGradient" cx="50%" cy="50%" r="50%" fx="35%" fy="5%">
        <stop offset="0%" style="stop-color:rgb(0,104,172); stop-opacity:1" /> <!-- Light at the top left -->
        <stop offset="70%" style="stop-color:rgb(0,64,120); stop-opacity:1" /> <!-- Main color of the sphere -->
        <stop offset="100%" style="stop-color:rgb(0,52,86); stop-opacity:1" /> <!-- Darker shading at the edge -->
      </radialGradient>
  </defs>
  <linearGradient id="grad1" gradientTransform="rotate(90)">
    <stop offset="5%" stop-color="#DDB666" />
    <stop offset="95%"  stop-color="#B3763B" />
  </linearGradient>
  <linearGradient id="grad2" gradientTransform="rotate(90)">
    <stop offset="5%"  stop-color="#B3763B" />
    <stop offset="95%" stop-color="#DDB666" />
  </linearGradient>
  <style>
    .cls-1 {
    stroke: #003456;
    stroke-linecap: round;
    stroke-linejoin: round;
    stroke-width: 5px;
    }
    .cls-font {
    font-family: Calibri, Calibri;
    font-size: 250px;
    fill: #ffffff;
    }

    .gold-light {
    fill: #F1D282;
    }
    .gold-medium {
    fill: #B3763B
    }
    .gold-medium2 {
    fill: url(#grad2)
    }
    .gold-medium3 {
    fill: url(#grad1)
    }
    .gold-dark {
    fill: #AF703A;
    }
  </style>
  <!-- Generator: Adobe Illustrator 28.6.0, SVG Export Plug-In . SVG Version: 1.2.0 Build 709)  -->
  <g>
    <g id="Layer_1" transform="translate(50,0)">
      <g>
        <polygon class="gold-light" points="0 175 315 0 630 175 317 370" />
        <polygon class="gold-medium3" points="0 175 0 525 317 370" />
        <polygon class="gold-medium3" points="630 175 630 525 317 370" />
        <polygon class="gold-dark" points="0 525 315 700 630 525 317 370" />
        <polygon class="gold-dark" points="35.5 195.5 317 39.5 598 195.5 317 370"></polygon>
        <polygon class="gold-medium2" points="35.5 195.5 35.5 508 317 370"></polygon>
        <polygon class="gold-medium2" points="598 195.5 598 508 317 370"></polygon>
        <polygon class="gold-light" points="35.5 508 317 664.5 598 508 317 370"></polygon>
        <polygon class="cls-4" points="320 105 545 230 545 480 320 605 95 480 95 230 320 105"/>

      <g transform="translate(-155,-200)">
        <g>
          <circle cx="327" cy="307" r="75" fill="url(#sphereGradient)"/>
          <path class="cls-1" d="M302.5,296c2.5-13.5,14-24,28.5-24s26,10,28.5,24h.5c11,0,20,9,20,20s-9,20-20,20h-58c-11,0-20-9-20-20s9-20,20.5-20h0Z"/>
        </g>
        <g>
          <circle cx="627" cy="307" r="75" fill="url(#sphereGradient)" />
          <g>
            <path class="cls-2" d="M650,320.6c-11.6-10.3-29.1-10.3-40.7,0-2,1.7-2.2,4.7-.5,6.7s4.7,2.2,6.7.5h0c8-7.2,20.1-7.2,28.1,0,2,1.7,4.9,1.6,6.7-.4s1.6-4.9-.4-6.7h0Z"/>
            <path class="cls-2" d="M629.7,293.4c-12.7,0-24.9,4.8-34.2,13.5-1.9,1.7-2.1,4.7-.4,6.7s4.7,2.1,6.7.4c0,0,0,0,.2-.1,15.6-14.6,39.8-14.6,55.4,0,1.9,1.8,4.9,1.8,6.7,0s1.8-4.9,0-6.7c0,0,0,0-.2-.1-9.2-8.7-21.5-13.5-34.2-13.5Z"/>
            <path class="cls-2" d="M676,291.7c-26.4-23.5-66.2-23.5-92.6,0-2,1.7-2.2,4.7-.5,6.7,1.7,2,4.7,2.2,6.7.5,0,0,.1,0,.2-.1,22.8-20.3,57.2-20.3,80,0,1.9,1.7,4.9,1.6,6.7-.4,1.7-1.9,1.6-4.9-.4-6.7h0Z"/>
            <circle class="cls-2" cx="629.7" cy="340.6" r="7.2"/>
          </g>
        </g>
        <g>
          <circle cx="327" cy="802" r="75" fill="url(#sphereGradient)"/>
          <g>
            <path class="cls-2" d="M373.2,806.6v-12.8l-11.6-4c-.8-2.8-2-5.2-3.2-8l5.2-11.2-9.2-9.2-11.2,5.2c-2.4-1.2-5.2-2.4-8-3.2l-4-11.6h-12.8l-4,11.6c-2.8.8-5.2,2-8,3.2l-11.2-5.2-9.2,9.2,5.2,11.2c-1.2,2.4-2.4,5.2-3.2,8l-11.6,4v12.8l11.6,4c.8,2.8,2,5.2,3.2,8l-5.2,11.2,9.2,9.2,11.2-5.2c2.4,1.2,5.2,2.4,8,3.2l4,11.6h12.8l4-11.6c2.8-.8,5.2-2,8-3.2l11.2,5.2,9.2-9.2-5.2-11.2c1.2-2.4,2.4-5.2,3.2-8l11.6-4ZM325.2,816.2c-8.8,0-16-7.2-16-16s7.2-16,16-16,16,7.2,16,16-7.2,16-16,16Z"/>
            <rect class="cls-3" x="275.2" y="752.2" width="40" height="100"/>
            <rect class="cls-2" x="280.0" y="770.2" width="40" height="4"/>
            <circle class="cls-2" cx="281.2" cy="772.2" r="6"/>
            <rect class="cls-2" x="289.2" y="798.2" width="56" height="4"/>
            <circle class="cls-2" cx="289.2" cy="800.2" r="6"/>
            <rect class="cls-2" x="281.2" y="826.2" width="40" height="4"/>
            <circle class="cls-2" cx="281.2" cy="828.2" r="6"/>
          </g>
        </g>
        <g>
          <circle cx="627" cy="802" r="75" fill="url(#sphereGradient)" />
          <path class="cls-1" d="M625.2,762.2c-12,12-30,16-44,16,0,34.4,20.4,64.4,44,80,23.6-15.6,44-45.6,44-80-14.4,0-32.4-4-44-16Z"/>
        </g>
        <g>
          <circle cx="182" cy="552" r="75" fill="url(#sphereGradient)" />
          <path class="cls-2" d="M220.2,562.2v10c0,7.6-18.8,14-40,14s-40-6.4-40-14v-10c9.6,6.8,28,9.2,40,9.2,12,0,30-2,40-9.2ZM180.2,514.2c-21.2,0-40,6-40,13.2s18.8,13.2,40,13.2,40-6,40-13.2-18.8-13.2-40-13.2ZM180.2,548.6c-12,0-30.4-2-40-9.2v9.6c0,7.6,18.8,14,40,14s40-6.4,40-14v-9.6c-10,7.2-28.4,9.2-40,9.2Z"/>
        </g>
        <g>
          <circle cx="772" cy="552" r="75" transform="translate(-164.2 707.6) rotate(-45)" fill="url(#sphereGradient)" />
          <path class="cls-2" d="M777.2,504.7c1.7,3,2.9,10.4,3.6,20.2h11.1v-10.4c-.3,0-.5-.3-.7-.4-.4-.3-.8-.6-1.1-.9h0c-.6-.6-1-1.3-1.4-2s-.5-1.6-.5-2.6.2-1.7.5-2.6.9-1.5,1.4-2.1,1.4-1.1,2.1-1.4,1.6-.5,2.5-.5,1.7.2,2.5.5c.8.3,1.5.9,2.1,1.4s1.1,1.4,1.4,2.1h0c.3.9.5,1.7.5,2.6s-.2,1.7-.5,2.6-.9,1.5-1.4,2.1h0c-.3.3-.6.7-1,.9-.2.2-.3.3-.6.3v13.4c0,.9-.3,1.5-.9,2s-1.3.9-2,.9h-13.7c0,2.8.2,5.8.2,8.8h25.8c0-.3.3-.4.3-.7h0c.3-.4.5-.9.9-1.1.6-.6,1.4-1.1,2.1-1.4h0c.8-.3,1.6-.5,2.5-.5s1.7.2,2.5.5,1.5.9,2.1,1.4,1.1,1.4,1.4,2.1.5,1.6.5,2.5-.2,1.7-.5,2.6c-.3.8-.9,1.5-1.4,2.1s-1.4,1.1-2.1,1.4h0c-.8.3-1.6.5-2.5.5s-1.7-.2-2.5-.5-1.5-.9-2.1-1.4c-.3-.3-.6-.7-.9-1.1-.2-.2-.3-.4-.3-.7h-25.8c0,3.3,0,6.7-.2,10.1h31.6c.8,0,1.5.3,2,.9.5.5.9,1.3.9,2v21.7c.3,0,.5.3.8.4.4.3.9.6,1.3.9.6.6,1.1,1.4,1.4,2.1h0c.3.9.5,1.7.5,2.6s-.2,1.7-.5,2.5c-.3.8-.9,1.5-1.4,2.1s-1.4,1.1-2.1,1.4-1.6.5-2.5.5-1.7-.2-2.5-.5c-.8-.3-1.5-.9-2.1-1.4s-1.1-1.4-1.4-2.1-.5-1.6-.5-2.5.2-1.7.5-2.5c.3-.8.9-1.5,1.4-2.1s.6-.5.9-.8c.2,0,.3-.2.5-.3v-19.1h-28.9c-.2,2.7-.3,5.5-.5,8.2h9.4c.8,0,1.5.3,2,.9s.9,1.3.9,2v11.6c.2,0,.4.3.6.3.4.3.8.5,1,.9h0c.6.7,1,1.4,1.4,2.1s.5,1.6.5,2.5-.2,1.7-.5,2.5h0c-.3.9-.9,1.6-1.4,2.1h0c-.6.7-1.3,1.1-2,1.4-.8.3-1.6.5-2.6.5s-1.7-.2-2.5-.5c-.8-.3-1.5-.9-2.1-1.4h0c-.6-.7-1-1.4-1.4-2.1s-.5-1.6-.5-2.5.2-1.7.5-2.5.9-1.5,1.4-2.1h0c.3-.3.7-.6,1.1-.9.2-.2.4-.3.7-.3v-8.7h-6.9c0,1.2-.2,2.3-.3,3.5-.2,1.5-.6,4.2-.3,5.6.8,3.7-2.6,14.5-12.2,16.6-4.8,1-9.6-.5-13.3-3.3-3-2.3-5.2-5.5-6-9.2-1.5,0-3.1-.3-4.7-.9-3.4-1.1-6.6-3.3-9.2-6.3s-4.4-6.6-5-10.8c-.3-2.1-.3-4.4.3-6.7-1.7-1.5-3.1-3.2-4.3-5-2-3.1-3.1-6.7-3-10.4,0-3.7,1.2-7.4,3.7-10.9,1.4-2,3.4-3.9,5.9-5.7v-2c.2-5.4,2.2-10.1,5.1-13.6,3-3.7,7-6,11.1-6.6h0c.2-.6.3-1.2.5-1.8,1.4-3.6,4.1-6.6,7.4-8.6,3.4-2,7.4-2.8,11.3-2,3.8,1.1,7.4,3.3,10.1,7.6h0ZM748.1,581.4c1.4-4.4,5.1-8.8,12-12.3,1.7-.9,3.8-.2,4.8,1.5.9,1.7.2,3.8-1.5,4.8-6.5,3.3-8.8,7.1-8.8,10.4s1.4,4.9,3.6,6.6,4.9,2.6,7.6,2c3.3-.7,6.5-3.7,8.1-10.4v-69.5c-1.6-6.5-4.8-9.6-8.1-10.3-2.1-.4-4.4,0-6.4,1.2-2,1.1-3.6,2.9-4.3,4.9-1,2.7-.4,6,3,9.2,1.4,1.3,1.5,3.5.2,4.9-1.4,1.4-3.5,1.5-4.9.2-2.6-2.5-4.3-5-5.1-7.7-2,.6-4.1,2-5.7,4-2,2.4-3.3,5.6-3.4,9.3,0,1,0,2,.2,3.1h0c.2,1.4-.4,2.8-1.7,3.6-2.6,1.5-4.4,3.3-5.8,5.1-1.6,2.2-2.3,4.4-2.4,6.6,0,2.2.7,4.4,1.9,6.5,1,1.7,2.5,3.2,4.3,4.5,1.3.9,2,2.6,1.4,4.2-.7,2-.9,4-.6,5.9.3,2.6,1.6,5.1,3.3,7.1s3.8,3.4,6,4.2c.9.4,1.8.6,2.6.6h0ZM749,532.1c1.4-1.4,3.6-1.4,4.9,0,1.4,1.4,1.4,3.6,0,4.9-3,3-4.6,6.8-4.8,10.6-.2,4,1.1,8.2,3.9,11.6,1.2,1.5.9,3.7-.5,4.9-1.5,1.2-3.7.9-4.9-.5-3.8-4.8-5.6-10.5-5.4-16.2.3-5.6,2.5-11.1,6.9-15.4h0Z"/>
        </g>
        <text class="cls-2" transform="translate(367 692.1)"><tspan x="0" y="0">E</tspan></text>
      </g>
      </g>
    </g>
  </g>
</svg>