<?xml version="1.0" encoding="UTF-8"?>
<svg xmlns="http://www.w3.org/2000/svg" version="1.1" viewBox="0 0 750 750">
  <defs>
    <linearGradient id="grad1" gradientTransform="rotate(90)">
      <stop offset="5%" stop-color="#66B6DD" />
      <stop offset="95%"  stop-color="#3B76B3" />
    </linearGradient>
    <linearGradient id="grad2" gradientTransform="rotate(90)">
      <stop offset="5%"  stop-color="#3B76B3" />
      <stop offset="95%" stop-color="#66B6DD" />
    </linearGradient>
        <!-- New dark-blue gradient -->
        <linearGradient id="grad-navy" x1="0%" y1="0%" x2="0%" y2="100%">
          <stop offset="0%"  stop-color="#002137"/>  <!-- very dark at top -->
          <stop offset="100%" stop-color="#335A8C"/>  <!-- lighter slate-blue at bottom -->
        </linearGradient>
    <style>
      .cls-1 {
        stroke: #003456;
        stroke-linecap: round;
        stroke-linejoin: round;
        stroke-width: 5px;
      }
        .cls-font{
        font-family: Arial, Helvetica, "Liberation Sans", "Nimbus Sans", "Noto Sans", "DejaVu Sans", sans-serif;
        font-weight:300; font-size:250px; fill:#ffffff; letter-spacing:-0.05em;
        }

      .cls-1, .cls-2, .cls-3 {
        fill: #fff;
      }

      .cls-3 {
        fill-rule: evenodd;
      }

       .cls-4 { fill: url(#grad-navy); }
      .gold-light {
        fill: #82D2F1;
      <!-- fill: #F1D282;-->
      }
      .gold-medium {
       <!-- fill: #B3763B-->
      }
      .gold-medium2 {
        fill: url(#grad2)
      }
      .gold-medium3 {
      fill: url(#grad1)
      }
      .gold-dark {
       <!-- fill: #AF703A;-->
       fill: #3A70AF;
      }
    </style>
  </defs>
  <!-- Generator: Adobe Illustrator 28.6.0, SVG Export Plug-In . SVG Version: 1.2.0 Build 709)  -->
  <g transform="translate(50,0)">
    <g id="Layer_1">
      <polygon class="gold-light" points="0 175 315 0 630 175 317 370" />
      <polygon class="gold-medium3" points="0 175 0 525 317 370" />
      <polygon class="gold-medium3" points="630 175 630 525 317 370" />
      <polygon class="gold-dark" points="0 525 315 700 630 525 317 370" />
      <polygon class="gold-dark" points="35.5 195.5 317 39.5 598 195.5 317 370"></polygon>
      <polygon class="gold-medium2" points="35.5 195.5 35.5 508 317 370"></polygon>
      <polygon class="gold-medium2" points="598 195.5 598 508 317 370"></polygon>
      <polygon class="gold-light" points="35.5 508 317 664.5 598 508 317 370"></polygon>
      <polygon class="cls-4" points="320 105 545 230 545 480 320 605 95 480 95 230 320 105"/>
      <text x="170" y="440" class="cls-font">Pd</text>
   <!--   <path class="cls-2" d="M333.5,233.4c5.3,8.2,9,28.6,11.1,55.9h34.4v-28.6c-.8-.2-1.6-.7-2.1-1.2-1.3-.7-2.4-1.6-3.4-2.6h-.3c-1.9-1.6-3.2-3.5-4.2-5.6s-1.6-4.5-1.6-7,.5-4.7,1.6-7,2.6-4.2,4.5-5.9,4.2-3.1,6.6-4c2.4-.9,5-1.4,7.7-1.4s5.3.5,7.7,1.4c2.4.9,4.8,2.3,6.6,4s3.4,3.8,4.5,5.9v.2c1.1,2.1,1.6,4.5,1.6,6.8s-.5,4.7-1.6,7-2.6,4.2-4.5,5.9l-.3.2c-.8.7-1.9,1.6-3.2,2.1-.5.5-1.1.7-1.9.9v37.1c0,2.3-1.1,4.2-2.6,5.6s-4,2.3-6.4,2.3h-42.7c.3,7.7.5,16,.5,24.2h80.6c.3-.7.8-1.2,1.1-1.9v-.2c.8-.9,1.6-2.1,2.6-2.8,1.9-1.6,4.2-3.1,6.6-4h.3c2.4-.9,5-1.4,7.7-1.4s5.3.5,7.7,1.4,4.8,2.3,6.6,4,3.4,3.8,4.5,5.9,1.6,4.5,1.6,6.8-.5,4.7-1.6,7c-1.1,2.1-2.6,4.2-4.5,5.9-1.9,1.6-4.2,3.1-6.6,4h-.3c-2.4.9-5,1.4-7.7,1.4s-5.3-.5-7.7-1.4-4.8-2.3-6.6-4c-1.1-.9-1.9-1.9-2.6-3.1-.5-.5-.8-1.2-1.1-1.9h-80.6c0,9.2-.3,18.5-.5,27.9h98.6c2.4,0,4.8.9,6.4,2.3,1.6,1.4,2.6,3.5,2.6,5.6v59.9c.8.2,1.6.7,2.4,1.2,1.3.7,2.6,1.6,4,2.6,1.9,1.6,3.4,3.8,4.5,5.9v.2c1.1,2.1,1.6,4.5,1.6,6.8s-.5,4.7-1.6,6.8c-1.1,2.1-2.6,4.2-4.5,5.9s-4.2,3.1-6.6,4-5,1.4-7.7,1.4-5.3-.5-7.7-1.4c-2.4-.9-4.8-2.3-6.6-4s-3.4-3.8-4.5-5.9-1.6-4.5-1.6-6.8.5-4.7,1.6-6.8c1.1-2.1,2.6-4.2,4.5-5.9s1.9-1.4,2.9-2.1c.5-.2,1.1-.5,1.6-.9v-52.8h-90.1c-.5,7.5-.8,15.3-1.6,22.8h29.1c2.4,0,4.8.9,6.4,2.3s2.6,3.5,2.6,5.6v32.2c.5.2,1.3.7,1.9.9,1.3.7,2.4,1.4,3.2,2.3l.3.2c1.9,1.6,3.2,3.5,4.2,5.6s1.6,4.5,1.6,6.8-.5,4.7-1.6,6.8v.2c-1.1,2.1-2.6,4.2-4.5,5.6l-.3.2c-1.9,1.6-4,2.8-6.4,3.8-2.4.9-5,1.4-7.9,1.4s-5.3-.5-7.7-1.4c-2.4-.9-4.8-2.3-6.6-4l-.3-.2c-1.9-1.6-3.2-3.5-4.2-5.6s-1.6-4.5-1.6-6.8.5-4.7,1.6-6.8,2.6-4.2,4.5-5.9h0c1.1-.9,2.1-1.6,3.4-2.3.5-.5,1.3-.7,2.1-.9v-23.9h-21.5c-.3,3.3-.5,6.3-.8,9.6-.5,4.2-1.9,11.7-.8,15.5,2.4,10.1-7.9,40.1-37.9,45.8-14.8,2.8-29.9-1.4-41.6-9.2-9.3-6.3-16.2-15.3-18.5-25.4-4.8-.2-9.8-.9-14.6-2.3-10.6-3.1-20.7-9.2-28.6-17.4s-13.8-18.3-15.6-29.8c-.8-5.9-.8-12.2.8-18.5-5.3-4.2-9.5-8.9-13.2-13.9-6.1-8.7-9.5-18.5-9.3-28.6.3-10.1,3.7-20.4,11.7-30.1,4.5-5.6,10.6-10.8,18.3-15.7v-5.6c.5-14.8,6.9-27.9,15.9-37.6,9.3-10.1,21.7-16.7,34.7-18.3h0c.5-1.6,1.1-3.3,1.6-4.9,4.2-9.9,12.7-18.3,23.1-23.7,10.6-5.4,23.1-7.7,35.2-5.6,11.9,3.1,23.1,9.2,31.5,20.9h0ZM242.8,445.4c4.2-12.2,15.9-24.2,37.4-34,5.3-2.3,11.9-.5,14.8,4.2,2.6,4.7.5,10.6-4.8,13.1-20.1,9.2-27.6,19.5-27.6,28.6s4.5,13.6,11.1,18.3c6.6,4.7,15.4,7,23.6,5.6,10.3-1.9,20.1-10.3,25.2-28.6v-192c-5-18.1-15.1-26.5-25.2-28.4-6.6-1.2-13.8.2-19.9,3.3-6.1,3.1-11.1,8-13.5,13.6-3.2,7.5-1.3,16.7,9.3,25.4,4.5,3.5,4.8,9.6.5,13.6-4.2,4-10.9,4.2-15.4.5-8.2-6.8-13.2-13.9-15.9-21.1-6.4,1.6-12.7,5.4-17.8,11-6.1,6.6-10.3,15.5-10.6,25.6,0,2.8,0,5.6.5,8.5h0c.5,3.8-1.3,7.7-5.3,9.9-7.9,4.2-13.8,9.2-18,14.1-5,6.1-7.2,12.2-7.4,18.3,0,6.1,2.1,12.2,5.8,17.8,3.2,4.7,7.7,8.9,13.2,12.4,4,2.6,6.1,7,4.2,11.5-2.1,5.6-2.6,11-1.9,16.2,1.1,7.3,5,14.1,10.3,19.5,5.3,5.4,11.9,9.4,18.8,11.5,2.9,1.2,5.6,1.6,8.2,1.6h0ZM245.5,309c4.2-3.8,11.1-3.8,15.4.2,4.2,3.8,4.2,9.9-.3,13.6-9.3,8.2-14.3,18.8-14.8,29.3-.5,11,3.4,22.5,12.2,31.9,3.7,4.2,2.9,10.3-1.6,13.6-4.8,3.3-11.7,2.6-15.4-1.4-11.9-13.1-17.5-29.1-17-44.8.8-15.5,7.9-30.8,21.5-42.5h0Z"/>-->
      <text/>
    </g>
  </g>
</svg>