<?xml version="1.0" encoding="UTF-8"?>
<svg xmlns="http://www.w3.org/2000/svg" version="1.1" viewBox="0 0 750 750">
    <defs>
        <!-- SILVER gradients -->
        <linearGradient id="grad1" gradientTransform="rotate(90)">
            <stop offset="5%"  stop-color="#E9EEF5" />
            <stop offset="95%" stop-color="#9AA3B2" />
        </linearGradient>
        <linearGradient id="grad2" gradientTransform="rotate(90)">
            <stop offset="5%"  stop-color="#9AA3B2" />
            <stop offset="95%" stop-color="#E9EEF5" />
        </linearGradient>

  <!-- Blue gradient for cls-4 -->
  <linearGradient id="grad-blue" x1="0%" y1="0%" x2="0%" y2="100%">
    <stop offset="0%"  stop-color="#1e4db8"/>  <!-- darker blue at top -->
    <stop offset="100%" stop-color="#6ea1f7"/>  <!-- lighter blue at bottom -->
  </linearGradient>

        <style>
            .cls-1 {
            stroke: #003456;
            stroke-linecap: round;
            stroke-linejoin: round;
            stroke-width: 5px;
            }
            .cls-font{
                font-family: Arial, Helvetica, "Liberation Sans", "Nimbus Sans", "Noto Sans", "DejaVu Sans", sans-serif;
                font-weight:700; font-size:300px; fill:#ffffff; letter-spacing:-0.01em;
            }

            .cls-1, .cls-2, .cls-3 { fill: #fff; }
            .cls-3 { fill-rule: evenodd; }

            /* Inner hex (Paidar blue) */
            .cls-4 { fill: url(#grad-blue); }

            /* --- SILVER ring shades --- */
            .silver-light { fill: #EEF2F7; }   /* bright face */
            .silver-dark  { fill: #8A94A6; }   /* shadow face */
            .silver-g1    { fill: url(#grad1); } /* grad light->dark */
            .silver-g2    { fill: url(#grad2); } /* grad dark->light */
        </style>
    </defs>

    <!-- Generator: Adobe Illustrator 28.6.0, SVG Export Plug-In . SVG Version: 1.2.0 Build 709)  -->
    <g transform="translate(50,0)">
        <g id="Layer_1">
            <!-- Outer ring (now SILVER) -->
            <polygon class="silver-light" points="0 175 315 0 630 175 317 370" />
            <polygon class="silver-g1"    points="0 175 0 525 317 370" />
            <polygon class="silver-g1"    points="630 175 630 525 317 370" />
            <polygon class="silver-dark"  points="0 525 315 700 630 525 317 370" />
            <polygon class="silver-dark"  points="35.5 195.5 317 39.5 598 195.5 317 370" />
            <polygon class="silver-g2"    points="35.5 195.5 35.5 508 317 370" />
            <polygon class="silver-g2"    points="598 195.5 598 508 317 370" />
            <polygon class="silver-light" points="35.5 508 317 664.5 598 508 317 370" />

            <!-- Inner hex (Paidar blue center) -->
            <polygon class="cls-4" points="320 105 545 230 545 480 320 605 95 480 95 230 320 105"/>

            <!-- Letters -->
            <text x="170" y="470" class="cls-font">Tr</text>
            <text/>
        </g>
    </g>
</svg>
